<svg width="74" height="52" viewBox="0 0 74 52" fill="none" xmlns="http://www.w3.org/2000/svg">
<path d="M29.6404 10.5393C31.2842 7.30668 35.9021 7.30668 37.5459 10.5393L39.592 14.5631C40.2352 15.8279 41.4447 16.7085 42.8458 16.9321L47.3171 17.6458C50.8878 18.2157 52.312 22.5898 49.7614 25.1528L46.5425 28.3875C45.5452 29.3896 45.0856 30.8073 45.3051 32.2039L46.0123 36.7036C46.5747 40.2822 42.8415 42.9888 39.6152 41.3416L35.6096 39.2965C34.343 38.6499 32.8433 38.6499 31.5767 39.2965L27.5711 41.3416C24.3448 42.9888 20.6116 40.2822 21.174 36.7036L21.8812 32.2039C22.1007 30.8073 21.6411 29.3896 20.6438 28.3875L17.4249 25.1528C14.8743 22.5898 16.2985 18.2157 19.8692 17.6458L24.3404 16.9321C25.7416 16.7085 26.9511 15.8279 27.5943 14.5631L29.6404 10.5393Z" fill="#FFE550"/>
<g filter="url(#filter0_d_480_4566)">
<path d="M8.56822 33.0787L8.5337 33.0869C8.53783 33.2075 8.53133 33.6952 8.51419 34.55C8.50856 35.4021 8.50684 35.9616 8.50902 36.2284C8.50848 36.4838 8.50284 36.6917 8.49209 36.8523C8.49286 37.0101 8.4933 37.1923 8.49341 37.3989C8.49081 37.594 8.48006 37.7545 8.46118 37.8805C8.45109 37.9923 8.44099 38.1041 8.4309 38.2159C8.408 38.4279 8.36204 38.5421 8.293 38.5585C8.14343 38.594 7.90984 38.4793 7.59223 38.2143C7.27191 37.9379 7.08733 37.6961 7.03848 37.4889C6.98963 37.2818 6.97831 35.7652 7.00452 32.9394C7.04224 30.1108 6.96812 28.2506 6.78217 27.3589C6.74146 27.1863 6.74916 27.0386 6.80528 26.9159C6.86335 26.6469 7.16206 26.3937 7.70141 26.1564C8.25227 25.9162 9.07422 25.6665 10.1673 25.4071C11.2718 25.145 12.1483 24.9978 12.7967 24.9654C13.4567 24.9303 13.8111 25.0164 13.8599 25.2235C13.8925 25.3617 13.8178 25.4827 13.6357 25.5867C13.4537 25.6906 13.292 25.7776 13.1506 25.8477C13.0064 25.9062 12.8176 25.9814 12.5841 26.0732C12.3479 26.1536 12.129 26.2298 11.9273 26.302C11.7229 26.3627 11.458 26.4499 11.1325 26.5636C10.8184 26.6745 10.5274 26.7801 10.2594 26.8801C9.98873 26.9687 9.6243 27.0977 9.16613 27.2672C8.70797 27.4367 8.41121 27.5436 8.27586 27.5878C8.2955 27.6196 8.31347 27.6701 8.32975 27.7391C8.4573 28.2801 8.52604 29.5764 8.53595 31.628C9.25745 31.4932 10.0185 31.2944 10.8191 31.0315C11.6312 30.7658 12.1294 30.6111 12.3134 30.5675C12.7507 30.4637 12.991 30.5039 13.0344 30.6881C13.1185 31.0448 12.6886 31.4629 11.7446 31.9421C10.8121 32.4186 9.7533 32.7975 8.56822 33.0787ZM19.8351 29.8945C19.7429 29.5032 19.5928 29.1499 19.3848 28.8347C19.1741 28.5079 18.9289 28.2926 18.6493 28.1888C17.907 28.5959 17.3676 29.3741 17.0311 30.5235C16.7035 31.6586 16.6441 32.6693 16.8531 33.5555C17.062 34.4418 17.4109 34.9424 17.8997 35.0573C18.6901 34.6996 19.259 33.969 19.6063 32.8657C19.9624 31.7481 20.0387 30.7578 19.8351 29.8945ZM15.3328 31.1271C15.5238 30.1337 15.8736 29.2729 16.3823 28.5445C16.8997 27.8019 17.4978 27.35 18.1766 27.1889C18.867 27.0251 19.5115 27.1821 20.1101 27.6599C20.706 28.1261 21.103 28.7794 21.3011 29.6196C21.4965 30.4482 21.496 31.3477 21.2996 32.318C21.1004 33.2768 20.712 34.1286 20.1343 34.8734C19.5655 35.6039 18.8841 36.0633 18.0902 36.2517C17.5034 36.391 16.9506 36.2366 16.4319 35.7884C15.9132 35.3403 15.5561 34.7019 15.3607 33.8732C15.1626 33.033 15.1533 32.1176 15.3328 31.1271ZM27.6554 28.0387C27.5631 27.6474 27.413 27.2941 27.205 26.9788C26.9943 26.6521 26.7492 26.4368 26.4696 26.333C25.7273 26.7401 25.1879 27.5183 24.8514 28.6677C24.5237 29.8028 24.4644 30.8135 24.6733 31.6997C24.8823 32.5859 25.2312 33.0865 25.7199 33.2015C26.5104 32.8437 27.0792 32.1132 27.4265 31.0099C27.7827 29.8923 27.8589 28.9019 27.6554 28.0387ZM23.1531 29.2712C23.3441 28.2779 23.6939 27.4171 24.2025 26.6887C24.7199 25.9461 25.3181 25.4942 25.9969 25.3331C26.6872 25.1693 27.3317 25.3263 27.9304 25.804C28.5263 26.2703 28.9233 26.9235 29.1214 27.7637C29.3168 28.5924 29.3163 29.4919 29.1198 30.4622C28.9207 31.421 28.5323 32.2728 27.9546 33.0175C27.3857 33.7481 26.7044 34.2075 25.9105 34.3959C25.3237 34.5352 24.7709 34.3807 24.2522 33.9326C23.7334 33.4845 23.3764 32.8461 23.181 32.0174C22.9828 31.1772 22.9735 30.2618 23.1531 29.2712ZM35.8184 17.8978C36.0025 17.8542 36.2676 17.9736 36.6136 18.256C36.9684 18.5243 37.1811 18.808 37.2517 19.1073C37.3223 19.4065 37.3793 20.2924 37.4227 21.7648C37.4634 23.2257 37.4704 24.7494 37.4435 26.3357C37.4075 29.8931 37.2572 31.7032 36.9926 31.766C36.8315 31.8042 36.6301 31.7487 36.3884 31.5995C36.1554 31.436 36.0213 31.2794 35.986 31.1298C35.9508 30.9802 35.9205 30.6714 35.8952 30.2034C35.039 31.6219 34.191 32.4309 33.351 32.6302C32.8448 32.7503 32.3303 32.6293 31.8075 32.2673C31.2963 31.9024 30.9823 31.4726 30.8656 30.9777C30.6973 30.2641 30.6877 29.3731 30.8367 28.3046C30.9945 27.222 31.3409 26.1918 31.8758 25.2141C32.4107 24.2364 33.0866 23.6507 33.9035 23.4568C34.7204 23.2629 35.4052 23.6169 35.9581 24.5188C35.9695 21.9395 35.8371 19.9352 35.5608 18.5059C35.4794 18.1606 35.5653 17.9579 35.8184 17.8978ZM35.9187 26.8252C35.7722 26.2037 35.5394 25.7059 35.2204 25.3319C34.9128 24.9552 34.6095 24.8024 34.3104 24.8734C33.8156 24.9908 33.3813 25.4159 33.0074 26.1488C32.6334 26.8817 32.3848 27.682 32.2614 28.5499C32.1468 29.4036 32.1573 30.1181 32.293 30.6936C32.3419 30.9008 32.456 31.0499 32.6354 31.141C32.8149 31.2321 33.0081 31.2531 33.2152 31.204C33.6639 31.0975 34.192 30.6319 34.7994 29.8071C35.4183 28.9797 35.7972 28.0876 35.9361 27.131L35.9391 26.9115L35.9187 26.8252ZM46.935 25.7787C47.1575 26.7225 46.919 27.6177 46.2196 28.4643C45.5174 29.2994 44.6141 29.848 43.5095 30.1101C42.4165 30.3695 41.4468 30.3018 40.6005 29.9071C39.7514 29.5009 39.2672 29.0446 39.1478 28.5382C39.0664 28.1929 39.1292 27.9957 39.3363 27.9466C39.5204 27.9029 39.948 28.0931 40.619 28.5172C40.8723 28.6637 41.1918 28.7824 41.5777 28.8731C41.9751 28.9611 42.3694 28.9587 42.7606 28.8659C43.566 28.6747 44.2305 28.2983 44.7541 27.7365C45.2892 27.172 45.4997 26.648 45.3858 26.1646C45.3125 25.8538 45.0118 25.5059 44.4836 25.1208C43.9554 24.7357 43.388 24.3903 42.7813 24.0846C42.1834 23.7646 41.619 23.4063 41.0881 23.0097C40.5572 22.6131 40.2579 22.2709 40.19 21.9832C40.1222 21.6954 40.1078 21.3768 40.1469 21.0272C40.1859 20.6776 40.2569 20.4116 40.3597 20.2292C40.6917 19.6278 41.2806 19.008 42.1263 18.3698C42.9836 17.7288 43.7344 17.3319 44.3787 17.179C44.7124 17.0998 45.0201 17.1422 45.3017 17.3063C45.5834 17.4704 45.7527 17.6733 45.8097 17.915C45.8369 18.0301 45.7378 18.1508 45.5124 18.2772C45.2871 18.4036 44.9406 18.5831 44.473 18.8156C44.0142 19.0338 43.6126 19.2628 43.2682 19.5026C42.0645 20.323 41.5182 20.9691 41.6295 21.441C41.6892 21.6942 42.5292 22.2423 44.1494 23.0854C44.773 23.4114 45.3625 23.8245 45.9178 24.3247C46.4819 24.8106 46.821 25.2953 46.935 25.7787ZM50.8975 26.6432C50.9491 26.8619 51.1014 26.9412 51.3546 26.8811C51.7918 26.7773 52.2925 26.5309 52.8569 26.1417C53.43 25.7384 53.751 25.5285 53.8201 25.5121C54.0272 25.4629 54.1565 25.5477 54.2081 25.7664C54.2868 26.1002 54.0325 26.5677 53.4453 27.1688C52.8696 27.7673 52.2999 28.1334 51.7361 28.2672C51.1838 28.3983 50.6883 28.3579 50.2496 28.146C49.8081 27.9226 49.5494 27.6498 49.4734 27.3275C49.3974 27.0052 49.3701 26.5803 49.3915 26.0526C49.4101 25.5134 49.4497 24.8052 49.5101 23.9279C49.5794 23.0364 49.625 22.3025 49.647 21.726C49.1361 21.981 48.7886 22.1303 48.6045 22.174C48.4204 22.2177 48.2146 22.1693 47.9871 22.0288C47.7684 21.8741 47.6387 21.7104 47.5979 21.5378C47.5328 21.2615 48.2183 20.8193 49.6543 20.2112C49.6362 19.2067 49.5402 18.3362 49.3666 17.5996C49.2851 17.2543 49.3595 17.0544 49.5896 16.9997C49.7852 16.9533 50.0567 17.0226 50.404 17.2075C50.7486 17.381 50.9576 17.6231 51.0309 17.9338C51.1041 18.2446 51.1353 18.8145 51.1242 19.6436C51.7665 19.4304 52.2832 19.2774 52.6744 19.1846C53.3647 19.0207 53.7452 19.0884 53.8157 19.3877C53.8564 19.5603 53.7005 19.7493 53.348 19.9545C53.0069 20.1569 52.2666 20.521 51.127 21.0467C51.0998 22.0133 51.0405 23.1272 50.9491 24.3886C50.855 25.6384 50.8378 26.39 50.8975 26.6432ZM58.6175 17.5919C59.1353 17.469 59.6752 17.6204 60.2372 18.0461C60.7966 18.4603 61.1264 18.8803 61.2268 19.3062C61.3245 19.7205 61.2811 20.1805 61.0966 20.6861C61.2754 20.826 61.3797 20.9592 61.4096 21.0858C61.4856 21.4081 61.541 21.9783 61.576 22.7965C61.6225 23.6119 61.6569 24.1445 61.6794 24.3944C61.7134 24.6416 61.7365 24.8427 61.7488 24.9978C61.7583 25.1414 61.7621 25.2863 61.7602 25.4326C61.782 25.7313 61.7124 25.8997 61.5513 25.938C61.3442 25.9871 61.1296 25.8497 60.9074 25.5256C60.694 25.1874 60.5079 24.7332 60.3492 24.1632C59.6319 25.7068 58.836 26.5823 57.9615 26.7899C57.4323 26.9154 56.8558 26.8152 56.2323 26.4892C55.6175 26.149 55.2531 25.7372 55.1391 25.2538C54.9762 24.5632 55.0285 23.6514 55.296 22.5184C55.5607 21.3739 56.0021 20.309 56.6203 19.3238C57.2384 18.3385 57.9042 17.7612 58.6175 17.5919ZM60.1279 20.442C59.8755 19.3716 59.5364 18.8869 59.1107 18.988C58.662 19.0945 58.2145 19.541 57.7681 20.3275C57.3191 21.1025 56.9825 21.942 56.7582 22.8459C56.534 23.7499 56.4775 24.4378 56.5888 24.9097C56.6349 25.1054 56.7535 25.2474 56.9444 25.3358C57.1326 25.4127 57.336 25.4252 57.5546 25.3733C58.0954 25.245 58.6197 24.7377 59.1276 23.8515C59.6327 22.9538 59.8941 21.9498 59.9118 20.8397C59.9056 20.6588 59.979 20.532 60.1319 20.4593L60.1279 20.442Z" fill="#2C2C2C"/>
</g>
<path fill-rule="evenodd" clip-rule="evenodd" d="M56.5889 32.4588C56.0956 32.5812 55.7071 32.9568 55.545 33.4385C52.4552 42.6232 43.8012 49.2285 33.6211 49.2285C27.4466 49.2285 21.8334 46.7985 17.6827 42.8368C17.3146 42.4855 16.795 42.3345 16.301 42.4571C15.2631 42.7147 14.8696 43.9719 15.638 44.7157C20.2973 49.2259 26.6364 52 33.6211 52C45.0933 52 54.8239 44.5164 58.2303 34.148C58.5646 33.1307 57.6282 32.2009 56.5889 32.4588ZM9.77855 22.9912C10.3406 22.8517 10.7572 22.3831 10.8605 21.8133C12.8245 10.9767 22.275 2.77153 33.6211 2.77153C40.9997 2.77153 47.5766 6.24161 51.8142 11.6488C52.1717 12.105 52.7593 12.3246 53.3217 12.185C54.2699 11.9497 54.699 10.8481 54.1014 10.0752C49.3621 3.94517 41.9507 0 33.6211 0C20.8465 0 10.2313 9.27939 8.10294 21.4883C7.93505 22.4513 8.82971 23.2267 9.77855 22.9912Z" fill="#BBF330"/>
<path d="M72.5754 8.66363C66.453 20.4304 63.7653 12.6692 55.1468 17.2283C56.0088 3.56927 65.1368 11.8802 72.5754 8.66363Z" fill="#BBF330" stroke="#BBF330" stroke-width="1.01961" stroke-linejoin="round"/>
<defs>
<filter id="filter0_d_480_4566" x="0.188965" y="12.2623" width="66.5359" height="34.5387" filterUnits="userSpaceOnUse" color-interpolation-filters="sRGB">
<feFlood flood-opacity="0" result="BackgroundImageFix"/>
<feColorMatrix in="SourceAlpha" type="matrix" values="0 0 0 0 0 0 0 0 0 0 0 0 0 0 0 0 0 0 127 0" result="hardAlpha"/>
<feOffset dy="4"/>
<feGaussianBlur stdDeviation="2"/>
<feComposite in2="hardAlpha" operator="out"/>
<feColorMatrix type="matrix" values="0 0 0 0 0 0 0 0 0 0 0 0 0 0 0 0 0 0 0.25 0"/>
<feBlend mode="normal" in2="BackgroundImageFix" result="effect1_dropShadow_480_4566"/>
<feBlend mode="normal" in="SourceGraphic" in2="effect1_dropShadow_480_4566" result="shape"/>
</filter>
</defs>
</svg>
