<svg width="18" height="16" viewBox="0 0 18 16" fill="none" xmlns="http://www.w3.org/2000/svg">
<path d="M8.57828 0.51869C8.87462 -0.172898 9.88389 -0.172897 10.1802 0.518692L11.9292 4.60057C12.0542 4.89213 12.3366 5.09134 12.6609 5.11657L17.2005 5.46986C17.9697 5.52972 18.2816 6.46147 17.6956 6.94876L14.2368 9.82474C13.9898 10.0302 13.8818 10.3526 13.9573 10.6597L15.014 14.9599C15.1931 15.6885 14.3766 16.2644 13.7181 15.874L9.83144 13.5695C9.55382 13.4049 9.20468 13.4049 8.92708 13.5695L5.04044 15.874C4.38192 16.2644 3.56541 15.6885 3.74444 14.9599L4.80116 10.6597C4.87664 10.3526 4.76874 10.0302 4.5217 9.82474L1.06291 6.94876C0.476891 6.46147 0.788776 5.52972 1.55794 5.46986L6.09766 5.11657C6.42192 5.09134 6.70438 4.89213 6.8293 4.60057L8.57828 0.51869Z" fill="#FFE550"/>
</svg>
